<svg width="32" height="32" viewBox="0 0 32 32" fill="none" xmlns="http://www.w3.org/2000/svg">
<path d="M29.3577 14.6621C28.8996 14.054 27.1977 13.6352 26.4777 12.5409C25.7577 11.4465 25.1683 9.07648 23.3358 8.16585C21.5033 7.25523 18.0008 6.9996 16.0008 6.9996C14.0008 6.9996 10.5008 7.2496 8.66582 8.16398C6.83082 9.07835 6.24394 11.4465 5.52394 12.539C4.80394 13.6315 3.10207 14.054 2.64394 14.6621C2.18582 15.2702 1.86332 19.1146 2.05957 20.9996C2.25582 22.8846 2.62207 23.9996 2.62207 23.9996H7.99707C8.87707 23.9996 9.16332 23.669 10.9633 23.4996C12.9383 23.3121 14.8758 23.2496 16.0008 23.2496C17.1258 23.2496 19.1258 23.3121 21.0996 23.4996C22.8996 23.6702 23.1952 23.9996 24.0658 23.9996H29.3783C29.3783 23.9996 29.7446 22.8846 29.9408 20.9996C30.1371 19.1146 29.8133 15.2702 29.3577 14.6621Z" fill="#596780" stroke="#F3F3FB" stroke-width="1.00189" stroke-linecap="round" stroke-linejoin="round"/>
<path d="M28.51 23.9993H25V25.0021H28.51V23.9993Z" fill="#596780"/>
<path d="M7.011 23.9993H3.50098V25.0021H7.011V23.9993Z" fill="#596780"/>
<path d="M22.7798 19.3219C22.4105 18.895 21.2067 18.5388 19.613 18.3C18.0192 18.0613 17.438 17.9994 16.013 17.9994C14.588 17.9994 13.9398 18.1019 12.4123 18.3C10.8848 18.4981 9.73795 18.8506 9.24608 19.3219C8.50795 20.0369 9.5892 20.8394 10.438 20.9369C11.2605 21.0306 12.9048 20.9963 16.0198 20.9963C19.1348 20.9963 20.7792 21.0306 21.6017 20.9369C22.4492 20.8338 23.453 20.0869 22.7798 19.3219Z" fill="white"/>
<path d="M26.9772 15.1898C26.9737 15.1401 26.952 15.0935 26.9162 15.0589C26.8804 15.0242 26.8331 15.004 26.7834 15.0021C26.0447 14.9759 25.2948 15.0284 23.9644 15.4206C23.2857 15.6187 22.6483 15.9378 22.083 16.3625C21.9404 16.4739 21.9911 16.7747 22.17 16.8066C23.2665 16.9352 24.3696 17 25.4736 17.0005C26.136 17.0005 26.8196 16.8129 26.9466 16.2224C27.0113 15.882 27.0217 15.5335 26.9772 15.1898V15.1898Z" fill="white"/>
<path d="M5.02754 15.1898C5.03105 15.1401 5.05279 15.0935 5.08857 15.0589C5.12436 15.0242 5.17167 15.004 5.22144 15.0021C5.9601 14.9759 6.71003 15.0284 8.04038 15.4206C8.71911 15.6187 9.35647 15.9378 9.92177 16.3625C10.0644 16.4739 10.0137 16.7747 9.83483 16.8066C8.73829 16.9352 7.6352 17 6.53115 17.0005C5.86879 17.0005 5.18516 16.8129 5.05819 16.2224C4.99346 15.882 4.98311 15.5335 5.02754 15.1898V15.1898Z" fill="white"/>
<path d="M27 11.9994H28.0102" stroke="white" stroke-width="1.00189" stroke-linecap="round" stroke-linejoin="round"/>
<path d="M3.99976 11.9994H5.00998" stroke="white" stroke-width="1.00189" stroke-linecap="round" stroke-linejoin="round"/>
<path d="M4.875 13.1874C4.875 13.1874 7.77188 12.4374 16 12.4374C24.2281 12.4374 27.125 13.1874 27.125 13.1874" fill="#596780"/>
<path d="M4.875 13.1874C4.875 13.1874 7.77188 12.4374 16 12.4374C24.2281 12.4374 27.125 13.1874 27.125 13.1874" stroke="#596780" stroke-width="1.00189" stroke-linecap="round" stroke-linejoin="round"/>
</svg>
